<svg width="320" height="320" viewBox="0 0 320 320" fill="none" xmlns="http://www.w3.org/2000/svg">
<path d="M10 160H42M160 10V43M278 160H310M53.3333 53.3333L80 76.5M266.667 53.3333L245.5 76.5" stroke="black" stroke-width="20" stroke-linecap="round" stroke-linejoin="round"/>
<path d="M110 226.667C96.0078 216.173 85.6722 201.542 80.4572 184.847C75.2422 168.153 75.4122 150.24 80.9431 133.648C86.4739 117.055 97.0853 102.623 111.274 92.3965C125.463 82.1698 142.51 76.6667 160 76.6667C177.49 76.6667 194.537 82.1698 208.726 92.3965C222.915 102.623 233.526 117.055 239.057 133.648C244.588 150.24 244.758 168.153 239.543 184.847C234.328 201.542 223.992 216.173 210 226.667C203.493 233.108 198.593 240.991 195.698 249.677C192.802 258.363 191.992 267.609 193.333 276.667C193.333 285.507 189.821 293.986 183.57 300.237C177.319 306.488 168.841 310 160 310C151.159 310 142.681 306.488 136.43 300.237C130.179 293.986 126.667 285.507 126.667 276.667C128.008 267.609 127.198 258.363 124.302 249.677C121.407 240.991 116.507 233.108 110 226.667" stroke="black" stroke-width="20" stroke-linecap="round" stroke-linejoin="round"/>
<path d="M160 288C165.523 288 170 283.523 170 278C170 272.477 165.523 268 160 268C154.477 268 150 272.477 150 278C150 283.523 154.477 288 160 288Z" fill="black"/>
<path d="M160.5 118C137.066 118 118 135.161 118 156.255C118 161.537 122.757 165.818 128.625 165.818C134.493 165.818 139.25 161.537 139.25 156.255C139.25 145.708 148.783 137.127 160.5 137.127C172.217 137.127 181.75 145.708 181.75 156.255C181.75 166.801 172.217 175.382 160.5 175.382C154.632 175.382 149.875 179.664 149.875 184.946V228.938C149.875 234.22 154.632 238 160.5 238C166.368 238 171.125 234.22 171.125 228.938V193.299C189.435 189.042 203 174.047 203 156.255C203 135.161 183.934 118 160.5 118Z" fill="black"/>
</svg>
